<?xml version="1.0" encoding="utf-8"?>
<!-- Generator: Adobe Illustrator 26.5.2, SVG Export Plug-In . SVG Version: 6.00 Build 0)  -->
<svg version="1.1" id="Layer_1" xmlns="http://www.w3.org/2000/svg" xmlns:xlink="http://www.w3.org/1999/xlink" x="0px" y="0px"
	 viewBox="0 0 32 32" style="enable-background:new 0 0 32 32;" xml:space="preserve">
<path d="M23.9,18.9l-0.3-0.2v0c-0.2-4-0.5-11.8-0.5-13.1l-0.2-1.1h0c-0.3-1.5-2.5-2.9-6.6-2.9c-4.2,0-6.5,1.5-6.7,3l0,0l-0.2,1
	c-0.1,1.6-0.5,8.8-0.8,13l-0.3,0.2c-0.5,0.5-1.4,1.5-1.4,3.1l0.2,2.9c0,0,0.8,5.4,9,5.6c0,0,8,0.2,9.1-5.3l0.3-2.9
	C25.2,22.1,25.5,20.6,23.9,18.9z M14.3,7.4l-3.8-2L19.7,3L14.3,7.4z M23.5,18.8L23.5,18.8C23.5,18.8,23.5,18.8,23.5,18.8z"/>
</svg>
