<?xml version="1.0" encoding="utf-8"?>
<!-- Generator: Adobe Illustrator 26.5.3, SVG Export Plug-In . SVG Version: 6.00 Build 0)  -->
<svg version="1.1" id="Layer_1" xmlns="http://www.w3.org/2000/svg" xmlns:xlink="http://www.w3.org/1999/xlink" x="0px" y="0px"
	 viewBox="0 0 137.4 88.3" style="enable-background:new 0 0 137.4 88.3;" xml:space="preserve">
<style type="text/css">
	.st0{fill:#FFFFFF;}
</style>
<path class="st0" d="M109.6,34.4l15.9-27.7c1.2-2.2,0.3-5-1.9-6.2c-0.7-0.3-1.4-0.5-2.1-0.5h-14.3c-1.6,0-3.1,0.9-3.9,2.2l-6,10.8
	l-2.9-5.1c-0.7-1.2-1.6-2.3-2.6-3.3c-2.4-2.3-5.4-3.8-8.6-4.4C82.4,0.1,80.7,0,80.5,0H31.1c-2.5,0-4.5,2-4.5,4.5V14
	c0,2.5,2,4.5,4.5,4.5h20.3L32.7,50.3H22.6V4.5c0-2.5-2-4.5-4.5-4.5H4.5C2,0,0,2,0,4.5V53c0.2,8.8,7.3,15.8,16.1,15.8h71.2
	c1.6,0,3-0.8,3.8-2.2l6.2-10.8L114.6,86c0.8,1.3,2.1,2.1,3.6,2.2c0.1,0,14.6,0,14.6,0c2.5,0,4.5-2,4.5-4.5c0,0,0,0,0,0
	c0-0.8-0.2-1.5-0.6-2.2L109.6,34.4z M76.4,50.3H57.9l12.7-21.6l5.9-10.1l8.8,15.8L76.4,50.3z"/>
</svg>
